<svg width="42" height="42" viewBox="0 0 42 42" fill="none" xmlns="http://www.w3.org/2000/svg">
<path fill-rule="evenodd" clip-rule="evenodd" d="M21 5.6875C21.3481 5.6875 21.6819 5.82578 21.9281 6.07192C22.1742 6.31806 22.3125 6.6519 22.3125 7V35C22.3125 35.3481 22.1742 35.6819 21.9281 35.9281C21.6819 36.1742 21.3481 36.3125 21 36.3125C20.6519 36.3125 20.3181 36.1742 20.0719 35.9281C19.8258 35.6819 19.6875 35.3481 19.6875 35V7C19.6875 6.6519 19.8258 6.31806 20.0719 6.07192C20.3181 5.82578 20.6519 5.6875 21 5.6875ZM14 10.9375C14.3481 10.9375 14.6819 11.0758 14.9281 11.3219C15.1742 11.5681 15.3125 11.9019 15.3125 12.25V29.75C15.3125 30.0981 15.1742 30.4319 14.9281 30.6781C14.6819 30.9242 14.3481 31.0625 14 31.0625C13.6519 31.0625 13.3181 30.9242 13.0719 30.6781C12.8258 30.4319 12.6875 30.0981 12.6875 29.75V12.25C12.6875 11.9019 12.8258 11.5681 13.0719 11.3219C13.3181 11.0758 13.6519 10.9375 14 10.9375ZM28 10.9375C28.3481 10.9375 28.6819 11.0758 28.9281 11.3219C29.1742 11.5681 29.3125 11.9019 29.3125 12.25V29.75C29.3125 30.0981 29.1742 30.4319 28.9281 30.6781C28.6819 30.9242 28.3481 31.0625 28 31.0625C27.6519 31.0625 27.3181 30.9242 27.0719 30.6781C26.8258 30.4319 26.6875 30.0981 26.6875 29.75V12.25C26.6875 11.9019 26.8258 11.5681 27.0719 11.3219C27.3181 11.0758 27.6519 10.9375 28 10.9375ZM7 17.9375C7.3481 17.9375 7.68194 18.0758 7.92808 18.3219C8.17422 18.5681 8.3125 18.9019 8.3125 19.25V22.75C8.3125 23.0981 8.17422 23.4319 7.92808 23.6781C7.68194 23.9242 7.3481 24.0625 7 24.0625C6.6519 24.0625 6.31806 23.9242 6.07192 23.6781C5.82578 23.4319 5.6875 23.0981 5.6875 22.75V19.25C5.6875 18.9019 5.82578 18.5681 6.07192 18.3219C6.31806 18.0758 6.6519 17.9375 7 17.9375ZM35 17.9375C35.3481 17.9375 35.6819 18.0758 35.9281 18.3219C36.1742 18.5681 36.3125 18.9019 36.3125 19.25V22.75C36.3125 23.0981 36.1742 23.4319 35.9281 23.6781C35.6819 23.9242 35.3481 24.0625 35 24.0625C34.6519 24.0625 34.3181 23.9242 34.0719 23.6781C33.8258 23.4319 33.6875 23.0981 33.6875 22.75V19.25C33.6875 18.9019 33.8258 18.5681 34.0719 18.3219C34.3181 18.0758 34.6519 17.9375 35 17.9375Z" fill="black"/>
</svg>
